<svg width="64" height="40" viewBox="0 0 64 40" fill="none" xmlns="http://www.w3.org/2000/svg">
<path d="M52.34 32.1264H63C63 23.9184 59.7339 16.0466 53.9203 10.2427C48.1067 4.43882 40.2217 1.17822 32 1.17822C23.7783 1.17822 15.8933 4.43882 10.0797 10.2427C4.26606 16.0466 1 23.9184 1 32.1264H11.66" stroke="#007AFF" stroke-width="2" stroke-linecap="round" stroke-linejoin="round"/>
<path d="M1 38.1862H11.66" stroke="#00BFA5" stroke-width="2" stroke-linecap="round" stroke-linejoin="round"/>
<path d="M52.34 38.1862H63" stroke="#00BFA5" stroke-width="2" stroke-linecap="round" stroke-linejoin="round"/>
<path d="M34.13 33.504L43.13 20.7654L29.79 28.8518C29.654 28.9436 29.5238 29.0436 29.4 29.1513C28.7728 29.7352 28.4036 30.5438 28.3736 31.3994C28.3436 32.255 28.6552 33.0875 29.24 33.7137C29.8248 34.3399 30.6349 34.7085 31.4919 34.7384C32.3489 34.7684 33.1828 34.4572 33.81 33.8734C33.9303 33.7627 34.0377 33.6388 34.13 33.504V33.504Z" stroke="#007AFF" stroke-width="2" stroke-linecap="round" stroke-linejoin="round"/>
<path d="M32 11.3112V4.87195" stroke="#00BFA5" stroke-width="2" stroke-linecap="round" stroke-linejoin="round"/>
<path d="M46.47 17.2512L51 12.7288" stroke="#00BFA5" stroke-width="2" stroke-linecap="round" stroke-linejoin="round"/>
<path d="M17.53 17.2512L13 12.7288" stroke="#00BFA5" stroke-width="2" stroke-linecap="round" stroke-linejoin="round"/>
<path d="M12.68 24.7987L8.80005 23.411" stroke="#00BFA5" stroke-width="2" stroke-linecap="round" stroke-linejoin="round"/>
<path d="M14.46 21.1247L10.91 18.9783" stroke="#00BFA5" stroke-width="2" stroke-linecap="round" stroke-linejoin="round"/>
<path d="M11.67 28.7331L7.60999 28.1431" stroke="#00BFA5" stroke-width="2" stroke-linecap="round" stroke-linejoin="round"/>
<path d="M20.5301 14.7954L18.1801 11.3312" stroke="#00BFA5" stroke-width="2" stroke-linecap="round" stroke-linejoin="round"/>
<path d="M24.25 12.8187L22.66 8.93518" stroke="#00BFA5" stroke-width="2" stroke-linecap="round" stroke-linejoin="round"/>
<path d="M28.2301 11.7705L27.4301 7.51758" stroke="#00BFA5" stroke-width="2" stroke-linecap="round" stroke-linejoin="round"/>
<path d="M51.34 24.8684L55.23 23.4907" stroke="#00BFA5" stroke-width="2" stroke-linecap="round" stroke-linejoin="round"/>
<path d="M49.54 21.1247L53.09 18.9783" stroke="#00BFA5" stroke-width="2" stroke-linecap="round" stroke-linejoin="round"/>
<path d="M52.33 28.7331L56.39 28.1431" stroke="#00BFA5" stroke-width="2" stroke-linecap="round" stroke-linejoin="round"/>
<path d="M43.47 14.7954L45.82 11.3312" stroke="#00BFA5" stroke-width="2" stroke-linecap="round" stroke-linejoin="round"/>
<path d="M39.79 12.8387L41.4 8.9552" stroke="#00BFA5" stroke-width="2" stroke-linecap="round" stroke-linejoin="round"/>
<path d="M35.79 11.6606L36.57 7.51758" stroke="#00BFA5" stroke-width="2" stroke-linecap="round" stroke-linejoin="round"/>
</svg>
