<svg id="a5473701-819e-4ddf-a1fc-dbc430036ff2" data-name="Layer 1" xmlns="http://www.w3.org/2000/svg" width="64" height="64" viewBox="0 0 64 64">
  <defs>
    <style>
      .a80d9908-9375-48a1-969a-e0c1c5194d72, .b22ee745-79a4-404d-aa42-a1f007e00ed5 {
        fill: none;
        stroke-linecap: round;
        stroke-linejoin: round;
        stroke-width: 2px;
      }

      .b22ee745-79a4-404d-aa42-a1f007e00ed5 {
        stroke: #00bfa5;
      }

      .a80d9908-9375-48a1-969a-e0c1c5194d72 {
        stroke: #007aff;
      }

      .ebc2a7bd-1bb1-4d08-bc20-90559f2d4e6b {
        fill: #f5821f;
      }
    </style>
  </defs>
  <title>icons</title>
  <line class="b22ee745-79a4-404d-aa42-a1f007e00ed5" x1="12.62" y1="59.04" x2="28.16" y2="59.04"/>
  <path class="b22ee745-79a4-404d-aa42-a1f007e00ed5" d="M12.94,29.7a6.63,6.63,0,1,1,5-.05"/>
  <path class="a80d9908-9375-48a1-969a-e0c1c5194d72" d="M32.89,37.89a2.49,2.49,0,0,0-2.75-2.48A2.59,2.59,0,0,0,27.91,38v5.72h0V36.11a2.59,2.59,0,0,0-2.23-2.62A2.5,2.5,0,0,0,22.92,36V41h0V33.28a2.59,2.59,0,0,0-2.23-2.62,2.49,2.49,0,0,0-2.75,2.48V23.66A2.59,2.59,0,0,0,15.69,21a2.48,2.48,0,0,0-2.75,2.48v19h0v-4.6a2.49,2.49,0,0,0-2.49-2.49h0a2.49,2.49,0,0,0-2.49,2.49V50.15a5,5,0,0,0,1.46,3.53L12.6,56.9s.07,6.16,0,6.1,15.56,0,15.56,0V57.36l3.46-3.89a5,5,0,0,0,1.27-3.32V37.89Z"/>
  <path class="b22ee745-79a4-404d-aa42-a1f007e00ed5" d="M6.53,29.72a10.8,10.8,0,1,1,19.66-6.19,10.7,10.7,0,0,1-1.85,6"/>
  <path class="b22ee745-79a4-404d-aa42-a1f007e00ed5" d="M15.38,12.51V5a4,4,0,0,1,4-4H43.82a4,4,0,0,1,4,4v7.51"/>
  <rect class="b22ee745-79a4-404d-aa42-a1f007e00ed5" x="35.52" y="12.51" width="24.58" height="24.58" rx="3.45"/>
  <path class="ebc2a7bd-1bb1-4d08-bc20-90559f2d4e6b" d="M53.32,23.68h-.69a.72.72,0,0,1-.72-.72v-.12A3.93,3.93,0,0,0,48,18.91H45.6a4.29,4.29,0,0,0-4.28,4.29v4.51A4.29,4.29,0,0,0,45.6,32H50a4.29,4.29,0,0,0,4.29-4.29v-3A1,1,0,0,0,53.32,23.68ZM45,22.54a.76.76,0,0,1,.56-.24h2.23a.8.8,0,0,1,.8.8.78.78,0,0,1-.24.56.79.79,0,0,1-.56.23H45.52a.79.79,0,0,1-.8-.79A.76.76,0,0,1,45,22.54Zm5.73,5.81a.79.79,0,0,1-.56.23H45.52a.79.79,0,0,1-.8-.79.76.76,0,0,1,.24-.56.75.75,0,0,1,.56-.23h4.61a.79.79,0,0,1,.8.79A.76.76,0,0,1,50.69,28.35Z"/>
</svg>
