<svg width="64" height="64" viewBox="0 0 64 64" fill="none" xmlns="http://www.w3.org/2000/svg">
<path d="M14.8802 32.8205V26.6705C14.8534 22.0922 16.6384 17.6891 19.8457 14.4219C23.0529 11.1547 27.4222 9.28848 32.0002 9.23047V9.23047C36.579 9.28586 40.9498 11.1512 44.1576 14.419C47.3655 17.6868 49.1496 22.0914 49.1202 26.6705V32.8205" stroke="#00BFA5" stroke-width="2" stroke-linecap="round" stroke-linejoin="round"/>
<path d="M7.86997 26.6701C7.81665 20.2117 10.3271 13.9958 14.8507 9.38596C19.3744 4.77612 25.5417 2.14871 32 2.08008C38.4591 2.14871 44.6275 4.7758 49.1527 9.38535C53.6779 13.9949 56.1906 20.2108 56.14 26.6701" stroke="#007AFF" stroke-width="2" stroke-linecap="round" stroke-linejoin="round"/>
<path d="M62.9102 41.72C62.9707 41.3228 63.0008 40.9217 63.0002 40.52V35.61C63.0136 33.4703 62.1798 31.4122 60.6809 29.8852C59.182 28.3582 57.1398 27.4863 55.0002 27.46H51.7902C51.0767 27.4705 50.3961 27.762 49.8962 28.2713C49.3963 28.7805 49.1175 29.4664 49.1202 30.18V46C49.1149 46.7143 49.3929 47.4017 49.8933 47.9115C50.3937 48.4213 51.0758 48.712 51.7902 48.72H55.0002C56.9398 48.6986 58.8069 47.9793 60.2595 46.6938C61.7121 45.4083 62.6531 43.6426 62.9102 41.72" stroke="#007AFF" stroke-width="2" stroke-linecap="round" stroke-linejoin="round"/>
<path d="M1.09016 41.72C1.02962 41.3228 0.999527 40.9217 1.00016 40.52V35.61C0.986788 33.4703 1.82059 31.4122 3.31949 29.8852C4.81838 28.3582 6.8606 27.4863 9.00016 27.46H12.2102C12.9237 27.4705 13.6042 27.762 14.1041 28.2713C14.604 28.7805 14.8829 29.4664 14.8802 30.18V46C14.8855 46.7143 14.6075 47.4017 14.107 47.9115C13.6066 48.4213 12.9245 48.712 12.2102 48.72H9.00016C7.06052 48.6986 5.19347 47.9793 3.74085 46.6938C2.28823 45.4083 1.34723 43.6426 1.09016 41.72" stroke="#007AFF" stroke-width="2" stroke-linecap="round" stroke-linejoin="round"/>
<path d="M55.6699 40.8496V53.3196L50.3799 58.7596H40.1699" stroke="#00BFA5" stroke-width="2" stroke-linecap="round" stroke-linejoin="round"/>
<path d="M37.0404 55.5996H27.0104C25.2817 55.5996 23.8804 57.001 23.8804 58.7296V58.7796C23.8804 60.5083 25.2817 61.9096 27.0104 61.9096H37.0404C38.769 61.9096 40.1704 60.5083 40.1704 58.7796V58.7296C40.1704 57.001 38.769 55.5996 37.0404 55.5996Z" stroke="#00BFA5" stroke-width="2" stroke-linecap="round" stroke-linejoin="round"/>
<path d="M42.7301 31.4599C43.2628 32.8203 43.5342 34.2689 43.5301 35.7299C43.5281 38.4424 42.5964 41.0723 40.8903 43.181C39.1842 45.2898 36.8068 46.75 34.1545 47.3182C31.5022 47.8864 28.7352 47.5283 26.315 46.3035C23.8947 45.0788 21.9674 43.0614 20.8545 40.5878C19.7415 38.1141 19.51 35.3337 20.1987 32.7101C20.8874 30.0865 22.4546 27.7782 24.6391 26.1702C26.8235 24.5621 29.4932 23.7514 32.2029 23.8733C34.9127 23.9952 37.4988 25.0422 39.5301 26.8399" stroke="#00BFA5" stroke-width="2" stroke-linecap="round" stroke-linejoin="round"/>
<path d="M39.7301 23.2695L39.6901 27.1595L35.5601 27.2095" stroke="#00BFA5" stroke-width="2" stroke-linecap="round" stroke-linejoin="round"/>
<path d="M31.6699 28.3096V36.2596L34.6499 39.2396" stroke="#00BFA5" stroke-width="2" stroke-linecap="round" stroke-linejoin="round"/>
</svg>
