<svg id="e008f9db-c5e6-4ec7-ab84-c3140aa1e063" data-name="Layer 1" xmlns="http://www.w3.org/2000/svg" width="64" height="64" viewBox="0 0 64 64">
  <defs>
    <style>
      .ad75a4bc-cae3-4cd0-bb4e-ed043a6b72d7, .af1812fb-ccd6-401f-9e7d-a041a234b9a2 {
        fill: none;
        stroke-linecap: round;
        stroke-linejoin: round;
        stroke-width: 2px;
      }

      .af1812fb-ccd6-401f-9e7d-a041a234b9a2 {
        stroke: #007aff;
      }

      .ad75a4bc-cae3-4cd0-bb4e-ed043a6b72d7 {
        stroke: #00bfa5;
      }
    </style>
  </defs>
  <title>icons</title>
  <g>
    <circle class="af1812fb-ccd6-401f-9e7d-a041a234b9a2" cx="20.85" cy="21.44" r="6.09"/>
    <circle class="ad75a4bc-cae3-4cd0-bb4e-ed043a6b72d7" cx="47.15" cy="46.54" r="4.6"/>
    <path class="af1812fb-ccd6-401f-9e7d-a041a234b9a2" d="M31.51,13.66l0,.05c-.21-.29-.43-.56-.65-.83h0l2.64-6.75-1.23-.68L28.46,3.31l-1.22-.68L22.88,8.41h0c-.36-.05-.71-.09-1.07-.12l.07,0L19,1.64,17.62,2,13.4,3.21l-1.35.39,1,7.17.06,0c-.3.23-.6.46-.88.7h0L5.5,8.8,4.81,10,2.67,13.85,2,15.08l5.78,4.36.05-.09c-.06.4-.11.8-.13,1.2l0-.13L1,23.33l.39,1.35L2.59,28.9,3,30.25l7.18-1,0-.14q.36.51.75,1L8.23,36.79l1.22.69,3.83,2.13,1.23.69,4.36-5.79-.07,0q.54.08,1.08.12l-.07,0,2.91,6.63,1.35-.38,4.22-1.19,1.35-.39-1-7.17-.06,0c.35-.26.7-.54,1-.83l6.62,2.59.68-1.22L39,28.85l.68-1.23-5.78-4.36,0,0c0-.28.06-.57.09-.86v.05l6.64-2.91-.39-1.35L39.07,14l-.38-1.35Z"/>
    <path class="ad75a4bc-cae3-4cd0-bb4e-ed043a6b72d7" d="M55.69,40.32v0l-.52-.66h0l2.11-5.39-1-.54-3.06-1.71-1-.55-3.48,4.62h0c-.28,0-.56-.07-.85-.09L48,36l-2.32-5.3L44.59,31,41.22,32l-1.08.31.8,5.73L41,38c-.25.18-.49.37-.71.56h0L34.9,36.43l-.55,1-1.7,3.06-.55,1,4.62,3.48,0-.06c0,.31-.09.63-.11,1l0-.1L31.32,48l.31,1.08.95,3.37.31,1.08,5.73-.8,0-.11c.19.26.39.52.6.76l-2.1,5.38,1,.55,3.06,1.7,1,.55L45.59,57l-.06,0,.86.1h0l2.32,5.3,1.08-.3,3.37-1,1.08-.3-.8-5.74,0,0q.42-.31.81-.66l5.29,2.07.55-1,1.7-3.06.55-1L57.62,48l0,0a5.23,5.23,0,0,0,.07-.68v0L63,45,62.68,44l-1-3.37-.31-1.08Z"/>
  </g>
</svg>
