<svg width="64" height="53" viewBox="0 0 64 53" fill="none" xmlns="http://www.w3.org/2000/svg">
<path d="M58.96 30.3887H5.03003C2.82089 30.3887 1.03003 32.1795 1.03003 34.3887V47.3687C1.03003 49.5778 2.82089 51.3687 5.03003 51.3687H58.96C61.1692 51.3687 62.96 49.5778 62.96 47.3687V34.3887C62.96 32.1795 61.1692 30.3887 58.96 30.3887Z" stroke="#007AFF" stroke-width="2" stroke-linejoin="round"/>
<path d="M11.02 40.8787H39.99" stroke="#00BFA5" stroke-width="2" stroke-linecap="round" stroke-linejoin="round"/>
<path d="M51.48 43.4788C52.9159 43.4788 54.08 42.3148 54.08 40.8788C54.08 39.4429 52.9159 38.2788 51.48 38.2788C50.0441 38.2788 48.88 39.4429 48.88 40.8788C48.88 42.3148 50.0441 43.4788 51.48 43.4788Z" stroke="#00BFA5" stroke-width="2" stroke-linecap="round" stroke-linejoin="round"/>
<path d="M32 20.9988C33.436 20.9988 34.6 19.8348 34.6 18.3988C34.6 16.9629 33.436 15.7988 32 15.7988C30.5641 15.7988 29.4 16.9629 29.4 18.3988C29.4 19.8348 30.5641 20.9988 32 20.9988Z" stroke="#00BFA5" stroke-width="2" stroke-linecap="round" stroke-linejoin="round"/>
<path d="M38.7 18.3987H45.54C47.5208 18.3998 49.42 19.1875 50.82 20.5887L61.82 31.5887" stroke="#007AFF" stroke-width="2" stroke-linecap="round" stroke-linejoin="round"/>
<path d="M2.18005 31.5887L13.1801 20.5887C14.5801 19.1875 16.4793 18.3998 18.4601 18.3987H25.0901" stroke="#007AFF" stroke-width="2" stroke-linecap="round" stroke-linejoin="round"/>
<path d="M26.64 13.3887C27.3274 12.6561 28.1577 12.0721 29.0796 11.673C30.0015 11.2738 30.9954 11.0679 32 11.0679C33.0046 11.0679 33.9986 11.2738 34.9204 11.673C35.8423 12.0721 36.6726 12.6561 37.36 13.3887" stroke="#00BFA5" stroke-width="2" stroke-linecap="round" stroke-linejoin="round"/>
<path d="M23 10.0288C24.147 8.80066 25.5343 7.82144 27.0756 7.15194C28.617 6.48244 30.2795 6.13696 31.96 6.13696C33.6405 6.13696 35.303 6.48244 36.8444 7.15194C38.3857 7.82144 39.773 8.80066 40.92 10.0288" stroke="#00BFA5" stroke-width="2" stroke-linecap="round" stroke-linejoin="round"/>
<path d="M19.28 6.50873C20.9111 4.76982 22.8814 3.38382 25.0692 2.43633C27.257 1.48884 29.6159 1 32 1C34.3842 1 36.743 1.48884 38.9308 2.43633C41.1186 3.38382 43.0889 4.76982 44.72 6.50873" stroke="#00BFA5" stroke-width="2" stroke-linecap="round" stroke-linejoin="round"/>
</svg>
