<svg width="64" height="64" viewBox="0 0 64 64" fill="none" xmlns="http://www.w3.org/2000/svg">
<g clip-path="url(#clip0)">
<path d="M36.1104 45.25V57.54" stroke="#00BFA5" stroke-width="2" stroke-linecap="round" stroke-linejoin="round"/>
<path d="M27.8901 57.6899V45.1699" stroke="#00BFA5" stroke-width="2" stroke-linecap="round" stroke-linejoin="round"/>
<path d="M43.4001 42.4297V63.1697L32.0301 54.6097L20.6001 63.1697V42.4597" stroke="#007AFF" stroke-width="2" stroke-linejoin="round"/>
<path d="M32.0001 45.5501C44.3492 45.5501 54.3601 35.5392 54.3601 23.1901C54.3601 10.841 44.3492 0.830078 32.0001 0.830078C19.6511 0.830078 9.64014 10.841 9.64014 23.1901C9.64014 35.5392 19.6511 45.5501 32.0001 45.5501Z" stroke="#007AFF" stroke-width="2" stroke-linejoin="round"/>
<path d="M31.9999 40.0398C41.3059 40.0398 48.8499 32.4958 48.8499 23.1898C48.8499 13.8838 41.3059 6.33984 31.9999 6.33984C22.6939 6.33984 15.1499 13.8838 15.1499 23.1898C15.1499 32.4958 22.6939 40.0398 31.9999 40.0398Z" stroke="#00BFA5" stroke-width="2" stroke-linecap="round" stroke-linejoin="round"/>
<path d="M33.0002 13.9999L35.2802 18.6199C35.3603 18.7849 35.4797 18.9278 35.6279 19.0359C35.7761 19.144 35.9486 19.214 36.1302 19.2399L41.2302 19.9799C41.4588 19.9943 41.6777 20.0773 41.8584 20.2179C42.0391 20.3586 42.1733 20.5504 42.2435 20.7684C42.3136 20.9864 42.3165 21.2205 42.2517 21.4401C42.1869 21.6598 42.0575 21.8548 41.8802 21.9999L38.1902 25.5899C38.0595 25.7182 37.9614 25.8759 37.904 26.0499C37.8466 26.2238 37.8316 26.409 37.8602 26.5899L38.7402 31.6699C38.773 31.8781 38.7475 32.0913 38.6664 32.2859C38.5854 32.4804 38.4519 32.6487 38.281 32.772C38.11 32.8953 37.9082 32.9688 37.698 32.9843C37.4878 32.9998 37.2774 32.9567 37.0902 32.8599L32.5302 30.4699C32.3675 30.3815 32.1854 30.3352 32.0002 30.3352C31.8151 30.3352 31.6329 30.3815 31.4702 30.4699L26.9102 32.8599C26.723 32.9567 26.5126 32.9998 26.3024 32.9843C26.0922 32.9688 25.8904 32.8953 25.7195 32.772C25.5485 32.6487 25.4151 32.4804 25.334 32.2859C25.2529 32.0913 25.2274 31.8781 25.2602 31.6699L26.1402 26.5899C26.1688 26.409 26.1538 26.2238 26.0964 26.0499C26.039 25.8759 25.9409 25.7182 25.8102 25.5899L22.1202 21.9999C21.9506 21.8545 21.8275 21.6625 21.7661 21.4477C21.7047 21.233 21.7077 21.0049 21.7748 20.7919C21.8419 20.5788 21.9702 20.3902 22.1436 20.2494C22.317 20.1086 22.5279 20.0218 22.7502 19.9999L27.8502 19.2599C28.0318 19.234 28.2043 19.164 28.3525 19.0559C28.5008 18.9478 28.6201 18.8049 28.7002 18.6399L31.0002 13.9999C31.0984 13.8205 31.2431 13.6708 31.419 13.5665C31.5949 13.4622 31.7957 13.4072 32.0002 13.4072C32.2047 13.4072 32.4055 13.4622 32.5814 13.5665C32.7574 13.6708 32.902 13.8205 33.0002 13.9999Z" stroke="#007AFF" stroke-width="2" stroke-linejoin="round"/>
</g>
<defs>
<clipPath id="clip0">
<rect width="64" height="64" fill="white"/>
</clipPath>
</defs>
</svg>
