<svg width="64" height="64" viewBox="0 0 64 64" fill="none" xmlns="http://www.w3.org/2000/svg">
<path d="M63 29.4199V46.3499C62.9894 47.5346 62.51 48.6669 61.6667 49.499C60.8233 50.3311 59.6847 50.7953 58.5 50.7899H5.5C4.31527 50.7953 3.17666 50.3311 2.33331 49.499C1.48997 48.6669 1.01057 47.5346 1 46.3499V29.4199" stroke="#007AFF" stroke-width="2" stroke-linejoin="round"/>
<path d="M63 23.9404V40.8704C62.9921 42.0569 62.5138 43.1917 61.6702 44.026C60.8266 44.8602 59.6865 45.3258 58.5 45.3204H5.5C4.31355 45.3258 3.17344 44.8602 2.32981 44.026C1.48618 43.1917 1.00793 42.0569 1 40.8704V23.9404" stroke="#007AFF" stroke-width="2" stroke-linejoin="round"/>
<path d="M59.15 13.6602H4.85C2.7237 13.6602 1 15.3839 1 17.5102V35.6302C1 37.7565 2.7237 39.4802 4.85 39.4802H59.15C61.2763 39.4802 63 37.7565 63 35.6302V17.5102C63 15.3839 61.2763 13.6602 59.15 13.6602Z" stroke="#007AFF" stroke-width="2" stroke-linejoin="round"/>
<path d="M22.3101 39.4697H41.6901" stroke="#00BFA5" stroke-width="2" stroke-linecap="round" stroke-linejoin="round"/>
<path d="M22.3101 45.3203H41.6901" stroke="#00BFA5" stroke-width="2" stroke-linecap="round" stroke-linejoin="round"/>
<path d="M41.6901 13.6602H22.3101V50.8002H41.6901V13.6602Z" stroke="#00BFA5" stroke-width="2" stroke-linecap="round" stroke-linejoin="round"/>
<path d="M31.9999 31.6998C34.9436 31.6998 37.3299 29.3807 37.3299 26.5198C37.3299 23.659 34.9436 21.3398 31.9999 21.3398C29.0562 21.3398 26.6699 23.659 26.6699 26.5198C26.6699 29.3807 29.0562 31.6998 31.9999 31.6998Z" stroke="#00BFA5" stroke-width="2" stroke-linecap="round" stroke-linejoin="round"/>
<path d="M7.79012 22.1706C9.12665 22.1706 10.2101 21.1006 10.2101 19.7806C10.2101 18.4607 9.12665 17.3906 7.79012 17.3906C6.45359 17.3906 5.37012 18.4607 5.37012 19.7806C5.37012 21.1006 6.45359 22.1706 7.79012 22.1706Z" stroke="#00BFA5" stroke-width="2" stroke-linecap="round" stroke-linejoin="round"/>
<path d="M56.5299 35.8698C57.8664 35.8698 58.9499 34.7998 58.9499 33.4798C58.9499 32.1599 57.8664 31.0898 56.5299 31.0898C55.1933 31.0898 54.1099 32.1599 54.1099 33.4798C54.1099 34.7998 55.1933 35.8698 56.5299 35.8698Z" stroke="#00BFA5" stroke-width="2" stroke-linecap="round" stroke-linejoin="round"/>
</svg>
