<svg width="40" height="40" viewBox="0 0 40 40" fill="none" xmlns="http://www.w3.org/2000/svg">
<path d="M20 39C30.4934 39 39 30.4934 39 20C39 9.50659 30.4934 1 20 1C9.50659 1 1 9.50659 1 20C1 30.4934 9.50659 39 20 39Z" stroke="#007AFF" stroke-width="2" stroke-linecap="round" stroke-linejoin="round"/>
<path d="M25.39 28.77C23.6803 29.9049 21.6722 30.507 19.62 30.5C17.9833 30.5006 16.3691 30.1186 14.9063 29.3844C13.4435 28.6502 12.1725 27.5842 11.1949 26.2715C10.2173 24.9588 9.56014 23.4357 9.27584 21.8239C8.99153 20.2121 9.08797 18.5561 9.55746 16.9881C10.0269 15.4202 10.8565 13.9837 11.9798 12.7933C13.1032 11.603 14.4893 10.6917 16.0275 10.1323C17.5656 9.57292 19.2133 9.38084 20.8389 9.57143C22.4645 9.76201 24.023 10.33 25.39 11.23" stroke="#007AFF" stroke-width="2" stroke-linecap="round" stroke-linejoin="round"/>
<path d="M17.3701 19.0101L22.5101 24.4001L33.8801 13.6201" stroke="#00BFA5" stroke-width="2" stroke-linecap="round" stroke-linejoin="round"/>
</svg>
