<svg width="40" height="40" viewBox="0 0 40 40" fill="none" xmlns="http://www.w3.org/2000/svg">
<path d="M35.7402 9.36035C38.3235 13.2153 39.4066 17.8823 38.7854 22.481C38.1641 27.0797 35.8814 31.2921 32.3679 34.3234C28.8543 37.3547 24.3529 38.9953 19.7128 38.9358C15.0727 38.8763 10.6148 37.1208 7.18018 34.0004" stroke="#007AFF" stroke-width="2" stroke-linecap="round" stroke-linejoin="round"/>
<path d="M7.17987 34.0004C4.15927 31.2257 2.11764 27.548 1.3601 23.517C0.60256 19.486 1.16979 15.3181 2.97701 11.6361C4.78424 7.95414 7.73442 4.95584 11.3867 3.08929C15.0389 1.22274 19.1971 0.588156 23.2399 1.28038C25.8965 1.73729 28.4237 2.76044 30.6499 4.28038" stroke="#007AFF" stroke-width="2" stroke-linecap="round" stroke-linejoin="round"/>
<path d="M25.8101 6.2602L29.9401 10.3802L38.8701 1.4502" stroke="#00BFA5" stroke-width="2" stroke-linecap="round" stroke-linejoin="round"/>
<path d="M19.9199 8.5498V21.2698L24.8399 26.1898" stroke="#007AFF" stroke-width="2" stroke-linecap="round" stroke-linejoin="round"/>
</svg>
