<svg width="64" height="64" viewBox="0 0 64 64" fill="none" xmlns="http://www.w3.org/2000/svg">
<g clip-path="url(#clip0)">
<path d="M41.1701 15.4297C41.1701 15.4297 43.3901 25.4297 39.9301 25.8497C36.4701 26.2697 34.4301 28.1297 34.1201 31.1197C33.8101 34.1097 35.8501 36.3997 34.1201 40.3597C32.3901 44.3197 30.8201 35.3597 27.5201 33.4697C24.2201 31.5797 18.8801 31.7897 19.0001 29.6497C19.1201 27.5097 13.2601 28.8097 13.4601 27.9897" stroke="#00BFA5" stroke-width="2" stroke-linecap="round" stroke-linejoin="round"/>
<path d="M50.5801 35.7195C50.5801 35.7195 48.7301 32.3095 46.0601 33.4395C43.3901 34.5695 43.3901 38.4995 41.0601 39.5995C38.7301 40.6995 35.3701 45.0995 37.5701 45.9995C39.7701 46.8995 35.2301 47.7995 35.3801 50.5995" stroke="#00BFA5" stroke-width="2" stroke-linecap="round" stroke-linejoin="round"/>
<path d="M23.9999 49.1498C23.9999 49.1498 27.5699 48.0898 25.3699 45.1498C23.1699 42.2098 21.8599 42.9998 21.2299 40.3598C20.5999 37.7198 15.8599 41.9198 15.8599 41.9198" stroke="#00BFA5" stroke-width="2" stroke-linecap="round" stroke-linejoin="round"/>
<path d="M32.0001 50.9396C42.4603 50.9396 50.9401 42.4598 50.9401 31.9996C50.9401 21.5393 42.4603 13.0596 32.0001 13.0596C21.5398 13.0596 13.0601 21.5393 13.0601 31.9996C13.0601 42.4598 21.5398 50.9396 32.0001 50.9396Z" stroke="#007AFF" stroke-width="2" stroke-linecap="round" stroke-linejoin="round"/>
<path d="M60.9998 20.9401C63.7693 28.1904 63.7184 36.2158 60.8571 43.4304C57.9959 50.645 52.5325 56.5239 45.5466 59.9052C38.5606 63.2866 30.5604 63.9245 23.127 61.6929C15.6935 59.4612 9.3675 54.5224 5.39916 47.8524C1.43082 41.1824 0.108831 33.2664 1.69443 25.6688C3.28003 18.0713 7.65786 11.3449 13.9628 6.81886C20.2677 2.29284 28.041 0.296509 35.7466 1.22436C43.4522 2.15221 50.5295 5.93675 55.5798 11.8301" stroke="#007AFF" stroke-width="2" stroke-linecap="round" stroke-linejoin="round"/>
<path d="M55.59 0.990234V11.8802H44.71" stroke="#007AFF" stroke-width="2" stroke-linecap="round" stroke-linejoin="round"/>
</g>
<defs>
<clipPath id="clip0">
<rect width="64" height="64" fill="white"/>
</clipPath>
</defs>
</svg>
