<svg width="40" height="40" viewBox="0 0 40 40" fill="none" xmlns="http://www.w3.org/2000/svg">
<path d="M34.06 5.78027H5.94C4.62434 5.79606 3.36793 6.32981 2.44319 7.26578C1.51845 8.20176 0.999905 9.46452 1 10.7803V24.7803C1 25.429 1.12778 26.0714 1.37604 26.6707C1.62429 27.2701 1.98817 27.8147 2.44689 28.2734C2.90561 28.7321 3.4502 29.096 4.04954 29.3442C4.64889 29.5925 5.29127 29.7203 5.94 29.7203H9.17V36.9003L16.43 29.6403H34.06C35.3702 29.6403 36.6267 29.1198 37.5531 28.1934C38.4795 27.267 39 26.0104 39 24.7003V10.7003C38.9793 9.39843 38.4515 8.15602 37.529 7.23722C36.6065 6.31843 35.3619 5.79573 34.06 5.78027Z" stroke="#007AFF" stroke-width="2" stroke-linecap="round" stroke-linejoin="round"/>
<path d="M12.5601 17.9799L17.3701 22.7999L27.7901 12.3799" stroke="#00BFA5" stroke-width="2" stroke-linecap="round" stroke-linejoin="round"/>
</svg>
