<svg width="40" height="40" viewBox="0 0 40 40" fill="none" xmlns="http://www.w3.org/2000/svg">
<path d="M34.06 4.44043H5.94001C5.29044 4.44043 4.64724 4.56854 4.04724 4.81742C3.44724 5.0663 2.90221 5.43107 2.44336 5.89086C1.98451 6.35064 1.62084 6.8964 1.37317 7.4969C1.1255 8.09741 0.998695 8.74086 1.00001 9.39043V23.3904C1.00794 24.6954 1.53189 25.9442 2.45747 26.8642C3.38304 27.7841 4.63502 28.3005 5.94001 28.3004H9.17001V35.5604L16.43 28.3004H34.06C35.3702 28.3004 36.6267 27.78 37.5531 26.8535C38.4795 25.9271 39 24.6706 39 23.3604V9.36043C38.9947 8.05373 38.4719 6.80235 37.5461 5.88024C36.6202 4.95814 35.3667 4.44042 34.06 4.44043V4.44043Z" stroke="#007AFF" stroke-width="2" stroke-linecap="round" stroke-linejoin="round"/>
<path d="M10.42 17.9103C11.6295 17.9103 12.61 16.9298 12.61 15.7203C12.61 14.5108 11.6295 13.5303 10.42 13.5303C9.21048 13.5303 8.22998 14.5108 8.22998 15.7203C8.22998 16.9298 9.21048 17.9103 10.42 17.9103Z" stroke="#00BFA5" stroke-width="2" stroke-linecap="round" stroke-linejoin="round"/>
<path d="M20.0001 17.9103C21.2096 17.9103 22.1901 16.9298 22.1901 15.7203C22.1901 14.5108 21.2096 13.5303 20.0001 13.5303C18.7906 13.5303 17.8101 14.5108 17.8101 15.7203C17.8101 16.9298 18.7906 17.9103 20.0001 17.9103Z" stroke="#00BFA5" stroke-width="2" stroke-linecap="round" stroke-linejoin="round"/>
<path d="M29.5801 17.9103C30.7896 17.9103 31.7701 16.9298 31.7701 15.7203C31.7701 14.5108 30.7896 13.5303 29.5801 13.5303C28.3706 13.5303 27.3901 14.5108 27.3901 15.7203C27.3901 16.9298 28.3706 17.9103 29.5801 17.9103Z" stroke="#00BFA5" stroke-width="2" stroke-linecap="round" stroke-linejoin="round"/>
</svg>
