<svg width="40" height="40" viewBox="0 0 40 40" fill="none" xmlns="http://www.w3.org/2000/svg">
<path d="M29.09 4.29004H10.91C7.25391 4.29004 4.29004 7.25391 4.29004 10.91V29.09C4.29004 32.7462 7.25391 35.71 10.91 35.71H29.09C32.7462 35.71 35.71 32.7462 35.71 29.09V10.91C35.71 7.25391 32.7462 4.29004 29.09 4.29004Z" stroke="#007AFF" stroke-width="2" stroke-linecap="round" stroke-linejoin="round"/>
<path d="M19.29 15.5C19.29 13.0147 17.2753 11 14.79 11C12.3048 11 10.29 13.0147 10.29 15.5V24.5C10.29 26.9853 12.3048 29 14.79 29C17.2753 29 19.29 26.9853 19.29 24.5V15.5Z" stroke="#007AFF" stroke-width="2" stroke-linecap="round" stroke-linejoin="round"/>
<path d="M26.44 28.1699V11.1699L24 13.6799" stroke="#007AFF" stroke-width="2" stroke-linecap="round" stroke-linejoin="round"/>
<path d="M23.1699 28.1699H29.7099" stroke="#007AFF" stroke-width="2" stroke-linecap="round" stroke-linejoin="round"/>
<path d="M38.75 1.25L1.25 38.75" stroke="#00BFA5" stroke-width="2" stroke-linecap="round" stroke-linejoin="round"/>
</svg>
