<svg width="70" height="70" viewBox="0 0 70 70" fill="none" xmlns="http://www.w3.org/2000/svg">
<path d="M17.88 35.82V29.67C17.8532 25.0917 19.6382 20.6886 22.8455 17.4214C26.0527 14.1542 30.422 12.288 35 12.23V12.23C39.5788 12.2854 43.9496 14.1507 47.1574 17.4185C50.3653 20.6863 52.1494 25.0909 52.12 29.67V35.82" stroke="#00BFA5" stroke-width="2" stroke-linecap="round" stroke-linejoin="round"/>
<path d="M10.87 29.6701C10.8166 23.2117 13.3271 16.9958 17.8507 12.386C22.3744 7.77612 28.5417 5.14871 35 5.08008C41.4591 5.14871 47.6275 7.7758 52.1527 12.3854C56.6779 16.9949 59.1906 23.2108 59.14 29.6701" stroke="#007AFF" stroke-width="2" stroke-linecap="round" stroke-linejoin="round"/>
<path d="M65.91 44.72C65.9705 44.3228 66.0006 43.9217 65.9999 43.52V38.61C66.0133 36.4703 65.1795 34.4122 63.6806 32.8852C62.1817 31.3582 60.1395 30.4863 57.9999 30.46H54.79C54.0764 30.4705 53.3959 30.762 52.896 31.2713C52.3961 31.7805 52.1172 32.4664 52.1199 33.18V49C52.1146 49.7143 52.3926 50.4017 52.8931 50.9115C53.3935 51.4213 54.0756 51.712 54.79 51.72H57.9999C59.9396 51.6986 61.8066 50.9793 63.2593 49.6938C64.7119 48.4083 65.6529 46.6426 65.91 44.72" stroke="#007AFF" stroke-width="2" stroke-linecap="round" stroke-linejoin="round"/>
<path d="M4.08998 44.72C4.02943 44.3228 3.99934 43.9217 3.99998 43.52V38.61C3.9866 36.4703 4.82041 34.4122 6.3193 32.8852C7.8182 31.3582 9.86041 30.4863 12 30.46H15.21C15.9235 30.4705 16.6041 30.762 17.1039 31.2713C17.6038 31.7805 17.8827 32.4664 17.88 33.18V49C17.8853 49.7143 17.6073 50.4017 17.1069 50.9115C16.6064 51.4213 15.9243 51.712 15.21 51.72H12C10.0603 51.6986 8.19329 50.9793 6.74067 49.6938C5.28804 48.4083 4.34705 46.6426 4.08998 44.72" stroke="#007AFF" stroke-width="2" stroke-linecap="round" stroke-linejoin="round"/>
<path d="M58.67 43.8501V56.3201L53.38 61.7601H43.17" stroke="#00BFA5" stroke-width="2" stroke-linecap="round" stroke-linejoin="round"/>
<path d="M40.04 58.6001H30.01C28.2814 58.6001 26.88 60.0014 26.88 61.7301V61.7801C26.88 63.5087 28.2814 64.9101 30.01 64.9101H40.04C41.7687 64.9101 43.17 63.5087 43.17 61.7801V61.7301C43.17 60.0014 41.7687 58.6001 40.04 58.6001Z" stroke="#00BFA5" stroke-width="2" stroke-linecap="round" stroke-linejoin="round"/>
</svg>
