<svg width="40" height="40" viewBox="0 0 40 40" fill="none" xmlns="http://www.w3.org/2000/svg">
<path d="M16.4098 24.8104H5.52979C5.61385 23.4247 6.22358 22.1232 7.23455 21.1717C8.24551 20.2202 9.58148 19.6904 10.9698 19.6904C12.3581 19.6904 13.6941 20.2202 14.705 21.1717C15.716 22.1232 16.3257 23.4247 16.4098 24.8104Z" stroke="#00BFA5" stroke-width="2" stroke-linecap="round" stroke-linejoin="round"/>
<path d="M10.97 19.6002C12.4612 19.6002 13.67 18.3914 13.67 16.9002C13.67 15.409 12.4612 14.2002 10.97 14.2002C9.47885 14.2002 8.27002 15.409 8.27002 16.9002C8.27002 18.3914 9.47885 19.6002 10.97 19.6002Z" stroke="#00BFA5" stroke-width="2" stroke-linecap="round" stroke-linejoin="round"/>
<path d="M34.84 7H5.16C2.8625 7 1 8.8625 1 11.16V28.84C1 31.1375 2.8625 33 5.16 33H34.84C37.1375 33 39 31.1375 39 28.84V11.16C39 8.8625 37.1375 7 34.84 7Z" stroke="#007AFF" stroke-width="2" stroke-linecap="round" stroke-linejoin="round"/>
<path d="M21.46 15.2695H28.76" stroke="#00BFA5" stroke-width="2" stroke-linecap="round" stroke-linejoin="round"/>
<path d="M21.46 20.0596H33.65" stroke="#007AFF" stroke-width="2" stroke-linecap="round" stroke-linejoin="round"/>
<path d="M21.46 23.7305H33.65" stroke="#007AFF" stroke-width="2" stroke-linecap="round" stroke-linejoin="round"/>
</svg>
