<svg width="40" height="40" viewBox="0 0 40 40" fill="none" xmlns="http://www.w3.org/2000/svg">
<path d="M1 9.29981H6.37C7.09778 9.29912 7.81857 9.44183 8.49118 9.7198C9.16379 9.99776 9.77504 10.4055 10.29 10.9198L28.17 28.7198C28.685 29.2341 29.2962 29.6419 29.9688 29.9198C30.6414 30.1978 31.3622 30.3405 32.09 30.3398H39" stroke="#007AFF" stroke-width="2" stroke-linecap="round" stroke-linejoin="round"/>
<path d="M22 17.1098L28.21 10.9198C29.2402 9.89092 30.634 9.30896 32.09 9.2998H39" stroke="#00BFA5" stroke-width="2" stroke-linecap="round" stroke-linejoin="round"/>
<path d="M1 30.3397H6.37C7.09778 30.3404 7.81857 30.1977 8.49118 29.9197C9.16379 29.6418 9.77504 29.234 10.29 28.7197L16.29 22.7197" stroke="#00BFA5" stroke-width="2" stroke-linecap="round" stroke-linejoin="round"/>
<path d="M35.3198 5.63965L38.9898 9.30965L35.2798 13.0096" stroke="#00BFA5" stroke-width="2" stroke-linecap="round" stroke-linejoin="round"/>
<path d="M35.3198 26.6699L38.9898 30.3399L35.2798 34.0399" stroke="#007AFF" stroke-width="2" stroke-linecap="round" stroke-linejoin="round"/>
</svg>
